<svg width="80" height="80" viewBox="0 0 80 80" fill="none" xmlns="http://www.w3.org/2000/svg">
<mask id="mask0_423_1643" style="mask-type:alpha" maskUnits="userSpaceOnUse" x="0" y="0" width="80" height="80">
<circle cx="40" cy="40" r="40" fill="#D9D9D9"/>
</mask>
<g mask="url(#mask0_423_1643)">
<path d="M102.857 61.9047C102.857 74.0021 95.906 83.8095 82.2484 83.8095H-2.24803C-15.9056 83.8095 -22.8569 74.0021 -22.8569 61.9047V18.0952C-22.8569 5.99782 -15.9056 -3.80954 -2.24803 -3.80954H82.2484C95.906 -3.80954 102.857 5.99782 102.857 18.0952V61.9047Z" fill="#137A08"/>
<path d="M82.7778 -4.44446H40V84.4444H82.7778C95.6636 84.4444 102.222 74.4949 102.222 62.2222V17.7778C102.222 5.50504 95.6636 -4.44446 82.7778 -4.44446Z" fill="#E6E7E8"/>
<path fill-rule="evenodd" clip-rule="evenodd" d="M63.668 54.2181C58.2336 62.6893 46.9228 68.038 35.0743 64.5771C23.9069 61.3033 16.2302 50.4784 16.8675 38.8071C17.4888 27.0821 26.2905 17.1094 37.7367 15.0763C49.872 12.9197 59.6116 19.4274 63.7636 26.2298C58.833 21.3829 53.1019 19.2043 46.3871 19.965C41.124 20.5684 36.7291 22.9481 33.2901 26.9586C26.5554 34.8025 26.8003 46.5614 33.8357 53.9652C37.8682 58.2028 42.8306 60.4271 48.6871 60.4789C54.5437 60.5207 59.5041 58.3063 63.664 54.2181" fill="#EC1C24"/>
<path d="M53.4844 28.8353L54.6754 36.6681L61.786 40.1159L54.709 43.6694L53.6124 51.5014L48.0579 45.8747L40.251 47.2572L43.8985 40.2421L40.1708 33.2423L47.9808 34.5302L53.4844 28.8353Z" fill="#EC1C24"/>
</g>
</svg>
